<svg viewBox="0 0 272 272" fill="none" xmlns="http://www.w3.org/2000/svg"><defs><filter id="prefix__prefix__inset-shadow" x="64" y="63" width="145" height="145" filterUnits="userSpaceOnUse" color-interpolation-filters="sRGB"><feFlood flood-opacity="0"/><feBlend in="SourceGraphic" result="shape"/><feColorMatrix in="SourceAlpha" values="0 0 0 0 0 0 0 0 0 0 0 0 0 0 0 0 0 0 127 0" result="hardAlpha"/><feOffset dx="15" dy="15"/><feComposite in2="hardAlpha" operator="arithmetic" k2="-1" k3="1"/><feColorMatrix values="0 0 0 0 0.70 0 0 0 0 0.17 0 0 0 0 0.14 0 0 0 1 0"/><feBlend in2="shape" result="effect1_innerShadow_1_98"/></filter></defs><path d="M20 30c0-5.523 4.477-10 10-10h212c5.523 0 10 4.477 10 10v212c0 5.523-4.477 10-10 10H30c-5.523 0-10-4.477-10-10V30z" fill="#1A5D92"/><path id="outline" fill-rule="evenodd" clip-rule="evenodd" d="M30 0h212c16.569 0 30 13.431 30 30v212c0 16.569-13.431 30-30 30H30c-16.569 0-30-13.431-30-30V30C0 13.431 13.431 0 30 0zm0 20c-5.523 0-10 4.477-10 10v212c0 5.523 4.477 10 10 10h212c5.523 0 10-4.477 10-10V30c0-5.523-4.477-10-10-10H30z"/><circle cx="136.5" cy="135.5" r="72.5" fill="#FEA959" filter="url(#prefix__prefix__inset-shadow)"/></svg>