<svg width="250" height="250" fill="none" xmlns="http://www.w3.org/2000/svg"><path fill-rule="evenodd" clip-rule="evenodd" d="M134.884 27.729l41.978 73.005c2.105 3.662 2.187 7.71.821 11.15h10.468c7.118 0 12.888 5.77 12.888 12.888v33.079c0 1.506-.259 2.952-.733 4.296h25.65c7.117 0 12.888 5.77 12.888 12.888v40.812c0 7.118-5.771 12.888-12.888 12.888H24.045c-7.118 0-12.888-5.77-12.888-12.888v-91.075c0-7.118 5.77-12.888 12.888-12.888H69.74c-1.366-3.44-1.285-7.488.82-11.15l41.979-73.005c4.955-8.618 17.389-8.618 22.345 0zM94.928 220.143h20.191a4.296 4.296 0 004.296-4.296V124.772a4.296 4.296 0 00-4.296-4.296H24.045a4.296 4.296 0 00-4.296 4.296v91.075a4.296 4.296 0 004.296 4.296h70.883zm37.375 0H225.956a4.297 4.297 0 004.296-4.296v-40.812a4.296 4.296 0 00-4.296-4.296h-93.663a4.296 4.296 0 00-4.286 4.296v40.812a4.297 4.297 0 004.296 4.296zm-4.867-188.131c-1.652-2.873-5.797-2.873-7.449 0l-41.978 73.005c-1.647 2.864.42 6.437 3.724 6.437h83.956c3.304 0 5.371-3.573 3.725-6.437l-41.978-73.005zm.571 125.839a4.296 4.296 0 004.296 4.296h55.848a4.296 4.296 0 004.296-4.296v-33.079a4.296 4.296 0 00-4.296-4.296h-55.848a4.296 4.296 0 00-4.296 4.296v33.079z" fill="#01121C"/><path d="M119.987 32.012c1.652-2.873 5.797-2.873 7.449 0l41.978 73.005c1.646 2.864-.421 6.437-3.725 6.437H81.733c-3.303 0-5.37-3.573-3.724-6.437l41.978-73.005z" fill="#FF6F54"/><path d="M132.303 77.087a8.592 8.592 0 11-17.184 0 8.592 8.592 0 0117.184 0z" fill="#01121C"/><path d="M128.007 124.772a4.296 4.296 0 014.296-4.296h55.848a4.296 4.296 0 014.296 4.296v33.079a4.296 4.296 0 01-4.296 4.296h-55.848a4.296 4.296 0 01-4.296-4.296v-33.079z" fill="#B82E24"/><path d="M128.007 175.035a4.296 4.296 0 014.296-4.296h93.653a4.296 4.296 0 014.296 4.296v40.812a4.297 4.297 0 01-4.296 4.296h-93.653a4.297 4.297 0 01-4.296-4.296v-40.812z" fill="#FEA959"/><path d="M19.749 124.772a4.296 4.296 0 014.296-4.296h91.074a4.296 4.296 0 014.296 4.296v91.075a4.296 4.296 0 01-4.296 4.296H24.045a4.296 4.296 0 01-4.296-4.296v-91.075z" fill="#1A5D92"/><g filter="url(#prefix__filter0_i_13_19)"><path d="M100.943 170.095c0 17.201-13.945 31.145-31.146 31.145-17.202 0-31.146-13.944-31.146-31.145 0-17.202 13.944-31.146 31.146-31.146 17.201 0 31.146 13.944 31.146 31.146z" fill="#FEA959"/></g><path fill-rule="evenodd" clip-rule="evenodd" d="M147.554 195.441a4.296 4.296 0 014.296-4.296h54.559a4.296 4.296 0 010 8.592H151.85a4.296 4.296 0 01-4.296-4.296z" fill="#01121C"/><defs><filter id="prefix__filter0_i_13_19" x="38.651" y="138.949" width="62.292" height="62.292" filterUnits="userSpaceOnUse" color-interpolation-filters="sRGB"><feFlood flood-opacity="0" result="BackgroundImageFix"/><feBlend in="SourceGraphic" in2="BackgroundImageFix" result="shape"/><feColorMatrix in="SourceAlpha" values="0 0 0 0 0 0 0 0 0 0 0 0 0 0 0 0 0 0 127 0" result="hardAlpha"/><feOffset dx="15" dy="15"/><feComposite in2="hardAlpha" operator="arithmetic" k2="-1" k3="1"/><feColorMatrix values="0 0 0 0 0.720883 0 0 0 0 0.178855 0 0 0 0 0.14245 0 0 0 1 0"/><feBlend in2="shape" result="effect1_innerShadow_13_19"/></filter></defs></svg>