<svg viewBox="0 0 530 483" fill="none" xmlns="http://www.w3.org/2000/svg"><path fill-rule="evenodd" clip-rule="evenodd" d="M288.007 15.107l97.715 169.939c4.901 8.523 5.091 17.946 1.91 25.954H412c16.569 0 30 13.431 30 30v77c0 3.506-.602 6.872-1.707 10H500c16.569 0 30 13.431 30 30v95c0 16.569-13.431 30-30 30H30c-16.569 0-30-13.431-30-30V241c0-16.569 13.431-30 30-30h106.368c-3.181-8.008-2.991-17.431 1.91-25.954l97.715-169.939c11.535-20.061 40.479-20.06 52.014 0zM195 463h47c5.523 0 10-4.477 10-10V241c0-5.523-4.477-10-10-10H30c-5.523 0-10 4.477-10 10v212c0 5.523 4.477 10 10 10h165zm87 0h218c5.523 0 10-4.477 10-10v-95c0-5.523-4.477-10-10-10H282c-5.523 0-10 4.477-10 10v95c0 5.523 4.477 10 10 10zM270.669 25.077c-3.845-6.687-13.493-6.687-17.338 0l-97.715 169.938c-3.833 6.667.979 14.985 8.669 14.985h195.43c7.69 0 12.502-8.318 8.669-14.985L270.669 25.077zM272 318c0 5.523 4.477 10 10 10h130c5.523 0 10-4.477 10-10v-77c0-5.523-4.477-10-10-10H282c-5.523 0-10 4.477-10 10v77z" fill="#01121C"/><path d="M253.331 25.077c3.845-6.687 13.493-6.687 17.338 0l97.715 169.938c3.833 6.667-.979 14.985-8.669 14.985h-195.43c-7.69 0-12.502-8.318-8.669-14.985l97.715-169.938z" fill="#FE6756"/><path d="M282 130c0 11.046-8.954 20-20 20s-20-8.954-20-20 8.954-20 20-20 20 8.954 20 20z" fill="#01121C"/><path d="M272 241c0-5.523 4.477-10 10-10h130c5.523 0 10 4.477 10 10v77c0 5.523-4.477 10-10 10H282c-5.523 0-10-4.477-10-10v-77z" fill="#B82E24"/><path d="M272 358c0-5.523 4.477-10 10-10h218c5.523 0 10 4.477 10 10v95c0 5.523-4.477 10-10 10H282c-5.523 0-10-4.477-10-10v-95z" fill="#FEA959"/><path d="M20 241c0-5.523 4.477-10 10-10h212c5.523 0 10 4.477 10 10v212c0 5.523-4.477 10-10 10H30c-5.523 0-10-4.477-10-10V241z" fill="#1A5D92"/><g filter="url(#prefix__filter0_i_1_69)"><path d="M209 346.5c0 40.041-32.459 72.5-72.5 72.5-40.04 0-72.5-32.459-72.5-72.5S96.46 274 136.5 274c40.041 0 72.5 32.459 72.5 72.5z" fill="#FEA959"/></g><path fill-rule="evenodd" clip-rule="evenodd" d="M317.5 405.5c0-5.523 4.477-10 10-10h127c5.523 0 10 4.477 10 10s-4.477 10-10 10h-127c-5.523 0-10-4.477-10-10z" fill="#01121C"/><defs><filter id="prefix__filter0_i_1_69" x="64" y="274" width="145" height="145" filterUnits="userSpaceOnUse" color-interpolation-filters="sRGB"><feFlood flood-opacity="0" result="BackgroundImageFix"/><feBlend in="SourceGraphic" in2="BackgroundImageFix" result="shape"/><feColorMatrix in="SourceAlpha" values="0 0 0 0 0 0 0 0 0 0 0 0 0 0 0 0 0 0 127 0" result="hardAlpha"/><feOffset dx="15" dy="15"/><feComposite in2="hardAlpha" operator="arithmetic" k2="-1" k3="1"/><feColorMatrix values="0 0 0 0 0.701961 0 0 0 0 0.176471 0 0 0 0 0.141176 0 0 0 1 0"/><feBlend in2="shape" result="effect1_innerShadow_1_69"/></filter></defs></svg>